<svg xmlns="http://www.w3.org/2000/svg" width="22.778" height="46.172" viewBox="0 0 22.778 46.172">
  <path id="Facebook" d="M-960.775,498.354h-8.474V476.739h-5.763v-7.883h5.759v-.672c0-2.114-.054-4.23.013-6.342a9.323,9.323,0,0,1,3.351-7.186,10.479,10.479,0,0,1,5.325-2.264,30.785,30.785,0,0,1,6.926-.025l1.357.107-.182,7.381h-.5c-1.627,0-3.254-.014-4.881,0a5.257,5.257,0,0,0-1.28.176,1.988,1.988,0,0,0-1.517,1.608,6.293,6.293,0,0,0-.147,1.226c-.016,1.887-.007,3.774-.007,5.66v.313h8.558c-.126,2.638-.249,5.232-.375,7.875h-8.166Z" transform="translate(975.012 -452.182)"/>
</svg>
