<svg xmlns="http://www.w3.org/2000/svg" width="117.126" height="33.669" viewBox="0 0 117.126 33.669">
  <g id="Group_4" transform="translate(-316.481 -475.747)">
    <g id="Group_3" transform="translate(347.669 475.747)">
      <g id="Group_2" transform="translate(0 2.891)">
        <path id="Path_1" d="M447.176,487.583a1.314,1.314,0,0,1,1.467,1.426v1.216a1.345,1.345,0,0,1-1.467,1.468h-6.332v9.016h4.738a1.314,1.314,0,0,1,1.468,1.426v1.216a1.346,1.346,0,0,1-1.468,1.468h-4.738v11.657a1.345,1.345,0,0,1-1.468,1.467h-2.39a1.345,1.345,0,0,1-1.467-1.467V489.009a1.314,1.314,0,0,1,1.467-1.426Z" transform="translate(-435.519 -487.373)" fill="#fff"/>
        <path id="Path_2" d="M502.135,516.474a1.345,1.345,0,0,1-1.467,1.467h-2.39a1.345,1.345,0,0,1-1.468-1.467V489.009a1.314,1.314,0,0,1,1.468-1.426h2.39a1.314,1.314,0,0,1,1.467,1.426Z" transform="translate(-480.751 -487.373)" fill="#fff"/>
        <path id="Path_3" d="M538.563,491.692v24.782a1.345,1.345,0,0,1-1.468,1.467h-2.39a1.345,1.345,0,0,1-1.467-1.467V491.692H529a1.345,1.345,0,0,1-1.467-1.468v-1.216A1.314,1.314,0,0,1,529,487.583h13.8a1.314,1.314,0,0,1,1.468,1.426v1.216a1.345,1.345,0,0,1-1.468,1.468Z" transform="translate(-503.426 -487.373)" fill="#fff"/>
        <path id="Path_4" d="M617.181,493.282v17.779c0,4.361-2.432,6.5-7.715,6.5s-7.673-2.138-7.673-6.5V493.282c0-4.361,2.39-6.5,7.673-6.5S617.181,488.921,617.181,493.282Zm-10.064,0v17.779a2.1,2.1,0,0,0,2.348,2.39,2.127,2.127,0,0,0,2.39-2.39V493.282a2.127,2.127,0,0,0-2.39-2.39A2.1,2.1,0,0,0,607.117,493.282Z" transform="translate(-558.228 -486.783)" fill="#fff"/>
        <path id="Path_5" d="M682.652,506.872v9.6a1.345,1.345,0,0,1-1.467,1.467h-2.39a1.345,1.345,0,0,1-1.467-1.467V489.009a1.314,1.314,0,0,1,1.467-1.426h5.619c5.451,0,7.883,2.18,7.883,6.667v5.912c0,4.528-2.432,6.709-7.883,6.709Zm1.761-4.109a2.276,2.276,0,0,0,2.558-2.6V494.25a2.263,2.263,0,0,0-2.558-2.558h-1.761v11.07Z" transform="translate(-613.972 -487.373)" fill="#fff"/>
      </g>
      <circle id="Ellipse_2"  cx="2.786" cy="2.786" r="2.786" transform="translate(80.366)" fill="#fff"/>
    </g>
    <path id="Path_6"  d="M328.243,501a11.762,11.762,0,1,0,11.762,11.762A11.762,11.762,0,0,0,328.243,501Zm5.282,6.933a2.763,2.763,0,0,1-.428,1.617c-.634.877-1.931,1.189-2.91,1.49-1.087.334-2.21.616-3.253,1.051q-.164.068-.325.141a1.6,1.6,0,0,0-1.07,1.73.052.052,0,0,0,.008.033,7.6,7.6,0,0,1,3.3-1.481c1.215-.362,1.477-.474,2.692-.836a.879.879,0,0,1,.437-.046c.24.055.181,1,.139,1.311-.1.763-.708.934-1.422,1.124-1.783.474-3.3.6-4.42,1.532a1.146,1.146,0,0,0-.381.936,6.031,6.031,0,0,1,.974-.41,4.35,4.35,0,0,1,.952-.153,1.069,1.069,0,0,1,.921,1.826,1.661,1.661,0,0,1-1.641.436,2.324,2.324,0,0,1-1.224-.636,2.658,2.658,0,0,1-.721-2.723,1.1,1.1,0,0,0-.044-.349l-.365-1.375c-.446-1.735.632-2.867,2.145-3.506.938-.4,2.019-.731,2.86-.99,2.006-.618,1.419-.459,3.368-1.052C333.516,507.481,333.542,507.544,333.525,507.933Z" transform="translate(0 -18.636)" fill="#fff"/>
  </g>
</svg>
