<svg xmlns="http://www.w3.org/2000/svg" width="87.071" height="48.544" viewBox="0 0 87.071 48.544">
  <g id="Group_1050" data-name="Group 1050" transform="translate(-1543.21 -1386.705)">
    <path id="Path_130" data-name="Path 130" d="M1603.607,1487.582a2.48,2.48,0,0,1,.257-.723,94.309,94.309,0,0,0,8.536-12.814c.643-1.187,1.172-2.435,1.777-3.644.219-.439.129-.682-.311-.9-1.872-.94-3.735-1.9-5.595-2.864q-1.08-.559-2.135-1.169a3.607,3.607,0,0,1-1.007-5.472A40.436,40.436,0,0,1,1619.018,1449c1.027-.515,2.075-.99,3.128-1.448a2.265,2.265,0,0,1,3.3,1.22,17.82,17.82,0,0,1,.869,2.411,46.115,46.115,0,0,0,4.188,9.574c1.677,2.9,3.528,5.707,5.289,8.563a1.693,1.693,0,0,1,.1.6c-.194-.058-.442-.059-.575-.183a89.4,89.4,0,0,1-10.231-10.687,5.766,5.766,0,0,1-.692-1c-.275-.579-.7-.614-1.229-.479q-4.65,1.194-9.3,2.384c-.5.129-.407.377-.144.673,1.558,1.752,3.126,3.494,4.666,5.262.844.969,1.64,1.979,2.455,2.973.524.639.557.948.006,1.6-.785.929-1.591,1.846-2.448,2.709q-6.672,6.723-13.376,13.415c-.334.335-.677.662-1.016.993Z" transform="translate(-52.199 -52.334)" fill="#303c49"/>
    <path id="Path_131" data-name="Path 131" d="M1654.117,1438.519c.754-.764,1.418-1.377,2-2.057a.839.839,0,0,1,1.056-.231,61.357,61.357,0,0,0,11.735,2.285,80.062,80.062,0,0,0,14.275.117,82.3,82.3,0,0,0,16.381-2.794,51.571,51.571,0,0,0,10.843-4.311,24.082,24.082,0,0,0,8.252-6.859c2.277-3.168,3.246-6.642,2.024-10.468a13.79,13.79,0,0,0-5.493-6.933,35.713,35.713,0,0,0-13.821-5.57,73.552,73.552,0,0,0-18.874-1.131c-1.461.073-2.919.217-4.4.33l-.324-3.014c1.7-.218,3.416-.488,5.137-.646a87.413,87.413,0,0,1,15.5.014,56.622,56.622,0,0,1,15.633,3.308,23.148,23.148,0,0,1,8.421,5.148,11.8,11.8,0,0,1,3.068,12.383,21.329,21.329,0,0,1-5.811,9.219c-5.38,5.283-11.929,8.556-18.984,10.96a69.718,69.718,0,0,1-13.958,3.165,76.609,76.609,0,0,1-14.673.379,77.761,77.761,0,0,1-13.235-1.964C1657.3,1439.464,1655.75,1438.979,1654.117,1438.519Z" transform="translate(-95.852 -8.812)" fill="#303c49"/>
    <path id="Path_132" data-name="Path 132" d="M1573.124,1418.86v2.569c-.537.141-1.136.3-1.739.455a53.553,53.553,0,0,0-16.321,6.829,25.125,25.125,0,0,0-7.83,7.636c-2.923,4.667-2.112,8.683,1.8,12.419a25.48,25.48,0,0,0,7.4,4.662c.2.09.4.188.649.3-.5.8-.96,1.573-1.469,2.31a.638.638,0,0,1-.591.153c-3.594-1.591-6.978-3.488-9.5-6.619a10.124,10.124,0,0,1-2.3-5.678,10.272,10.272,0,0,1,1.285-5.124,27.207,27.207,0,0,1,7.5-9.212,56.544,56.544,0,0,1,19.334-10.132C1571.9,1419.257,1572.453,1419.076,1573.124,1418.86Z" transform="translate(0 -27.79)" fill="#303c49"/>
    <path id="Path_133" data-name="Path 133" d="M1775.4,1391.173c-.142,2.51-.714,4.36-2.228,5.832a2.793,2.793,0,0,1-4.37-.215,7.34,7.34,0,0,1-.1-8.741,3.553,3.553,0,0,1,6.067.843A13.788,13.788,0,0,1,1775.4,1391.173Z" transform="translate(-193.679 0)" fill="#303c49"/>
    <path id="Path_134" data-name="Path 134" d="M1877.958,1552.794c1.731,0,3.418-.054,5.1.02a1.758,1.758,0,0,1,1.722,1.682c.067.983-.314,1.471-1.415,1.823-.166.053-.327.122-.695.261a7.277,7.277,0,0,0,.707.272c1.082.268,1.592.786,1.643,1.684a1.9,1.9,0,0,1-1.5,1.98,4.157,4.157,0,0,1-1.186.236c-1.441.028-2.883.011-4.379.011Zm2.194,6.688c.655,0,1.236.045,1.807-.012.6-.061.7-.559.7-1.054,0-.47-.081-.959-.646-1.021a17.328,17.328,0,0,0-1.859-.015Zm.018-3.516c.74-.081,1.568.307,2.081-.41a1.321,1.321,0,0,0-.013-1.235c-.524-.695-1.34-.328-2.068-.4Z" transform="translate(-289.308 -143.528)" fill="#303c49"/>
    <path id="Path_135" data-name="Path 135" d="M1829.466,1489.846v-7.913c1.734,0,3.459-.042,5.179.031a2.063,2.063,0,0,1,1.213.653,1.673,1.673,0,0,1-.644,2.717,2.861,2.861,0,0,0-.875.47c.24.069.481.137.72.208a1.676,1.676,0,0,1,1.4,1.45,1.755,1.755,0,0,1-.907,1.941,3.189,3.189,0,0,1-1.265.424C1832.7,1489.876,1831.1,1489.846,1829.466,1489.846Zm2.182-1.276a2.436,2.436,0,0,0,.351.057c.382,0,.766.014,1.147-.011.72-.048,1.024-.371,1.03-1.059.006-.707-.275-1.043-.986-1.093-.507-.036-1.018-.007-1.541-.007Zm0-3.479c.759-.155,1.613.338,2.1-.445a1.335,1.335,0,0,0-.054-1.25c-.534-.6-1.323-.294-2.05-.321Z" transform="translate(-247.399 -82.291)" fill="#303c49"/>
    <path id="Path_136" data-name="Path 136" d="M1959.314,1489.144v-8.039a4.662,4.662,0,0,1,.5-.053c1.106,0,2.212-.012,3.318,0,3.061.031,4.257,1.762,3.937,4.679a3.561,3.561,0,0,1-3.888,3.411C1961.919,1489.154,1960.657,1489.144,1959.314,1489.144Zm2.161-1.432c.443,0,.8.008,1.156,0,1.421-.04,1.991-.5,2.141-1.9a7.088,7.088,0,0,0-.106-2.01,1.5,1.5,0,0,0-1.325-1.274,6.862,6.862,0,0,0-1.411-.076c-.159.01-.432.258-.435.4C1961.463,1484.427,1961.475,1486,1961.475,1487.711Z" transform="translate(-359.621 -81.535)" fill="#303c49"/>
    <path id="Path_137" data-name="Path 137" d="M1895.923,1483.514c0,2.67-1.54,4.269-4.143,4.291a4.3,4.3,0,0,1-.009-8.59C1894.345,1479.225,1895.919,1480.856,1895.923,1483.514Zm-6.04.005c.017.359.02.743.058,1.123a1.726,1.726,0,0,0,1.7,1.684,1.608,1.608,0,0,0,1.826-1.486,10.247,10.247,0,0,0,.019-2.541,1.586,1.586,0,0,0-1.873-1.577,1.718,1.718,0,0,0-1.68,1.831C1889.908,1482.866,1889.9,1483.181,1889.884,1483.519Z" transform="translate(-297.588 -79.953)" fill="#303c49"/>
    <path id="Path_138" data-name="Path 138" d="M1969.32,1551.707h2.12v3.916a20.064,20.064,0,0,0,1.944-2.374,3,3,0,0,1,3.419-1.577,4.7,4.7,0,0,0,.586,0l-3.312,3.83,3.561,4.257c-.994,0-1.843.026-2.687-.02-.191-.011-.4-.249-.545-.428-.944-1.174-1.871-2.362-2.91-3.678v4.072h-2.176Z" transform="translate(-368.269 -142.514)" fill="#303c49"/>
    <path id="Path_139" data-name="Path 139" d="M2034,1560.424v-8.009h6.067v1.4h-3.839v1.807h2.684v1.443h-2.693v1.9h3.985v1.461Z" transform="translate(-424.168 -143.216)" fill="#303c49"/>
    <path id="Path_140" data-name="Path 140" d="M2024.4,1480.854c-.53.855-1,1.613-1.471,2.369a9.613,9.613,0,0,1-.625.963,5.4,5.4,0,0,0-1.2,4.272,1.055,1.055,0,0,1-.017.269.958.958,0,0,1-.066.172h-2.173c0-.691.046-1.365-.016-2.029a3.321,3.321,0,0,0-.38-1.313c-.853-1.483-1.763-2.934-2.649-4.4a2.066,2.066,0,0,1-.113-.3c.8,0,1.537-.027,2.273.019a.791.791,0,0,1,.515.4c.528,1.01,1.019,2.039,1.59,3.2.486-1,.955-1.867,1.325-2.77.252-.614.541-.972,1.278-.863A12.644,12.644,0,0,0,2024.4,1480.854Z" transform="translate(-408.343 -81.339)" fill="#303c49"/>
    <path id="Path_141" data-name="Path 141" d="M1942.514,1560.492h-2.11v-8.014h2.11Z" transform="translate(-343.278 -143.271)" fill="#303c49"/>
    <path id="Path_142" data-name="Path 142" d="M1787.668,1633.791v-3.308c.825.069,1.7-.267,2.4.471a2.133,2.133,0,0,1,.17,2.119C1789.893,1633.745,1789.214,1633.944,1787.668,1633.791Zm.514-.163c.609-.248,1.323-.321,1.482-.657a2.349,2.349,0,0,0-.018-1.7c-.234-.584-.907-.387-1.465-.382Z" transform="translate(-211.275 -210.672)" fill="#303c49"/>
    <path id="Path_143" data-name="Path 143" d="M1755.715,1630.22c0,.712.012,1.425-.011,2.137,0,.129-.154.253-.237.379-.061-.125-.173-.249-.176-.375-.016-.834-.01-1.669-.008-2.5,0-.133.017-.265.043-.651.372.27.69.4.845.634a21.168,21.168,0,0,0,1.411,2.085v-2.542c.434.219.563,1.932.295,3.519-.308-.217-.614-.332-.758-.552-.455-.7-.849-1.432-1.267-2.152Z" transform="translate(-183.284 -209.583)" fill="#303c49"/>
    <path id="Path_144" data-name="Path 144" d="M1849.34,1631.708c0,1.115-.587,1.746-1.6,1.732-.968-.014-1.528-.651-1.527-1.738a1.574,1.574,0,1,1,3.126.006Zm-.515.015c0-.874-.372-1.361-1.047-1.36s-1.061.494-1.055,1.357c.005.842.357,1.3,1.018,1.316C1848.439,1633.056,1848.822,1632.592,1848.826,1631.723Z" transform="translate(-261.874 -210.228)" fill="#303c49"/>
    <path id="Path_145" data-name="Path 145" d="M1818.587,1631.73c-.009,1.109-.6,1.732-1.62,1.711a1.526,1.526,0,0,1-1.514-1.756,1.566,1.566,0,0,1,1.56-1.732C1818,1629.945,1818.6,1630.619,1818.587,1631.73Zm-2.62-.008c.005.829.375,1.3,1.027,1.315.689.014,1.1-.473,1.107-1.315s-.408-1.354-1.074-1.357S1815.961,1630.872,1815.967,1631.722Z" transform="translate(-235.288 -210.229)" fill="#303c49"/>
    <path id="Path_146" data-name="Path 146" d="M1879.941,1632.409l.85,1.3c-.754.18-.83-.468-1.1-.807-.354-.44-.324-.464-.848-.426-.284.37.2,1.005-.481,1.373v-3.339c.929-.272,1.808-.127,2.09.352S1880.58,1631.84,1879.941,1632.409Zm-1.143-.24a7.337,7.337,0,0,0,1.182-.476.664.664,0,0,0,.01-.592,7.532,7.532,0,0,0-1.192-.437Z" transform="translate(-289.655 -210.594)" fill="#303c49"/>
    <path id="Path_147" data-name="Path 147" d="M2024.811,1632.766v1.064h1.589c-.237.457-.781.526-2.07.34v-3.243h1.974l.036.238-1.527.161v.923l1.192.121.014.272Z" transform="translate(-415.812 -211.07)" fill="#303c49"/>
    <path id="Path_148" data-name="Path 148" d="M1923.94,1630.732c-1.138.033-2.195.177-2.021,1.646.138,1.17,1.093,1.107,2,1.076a1.321,1.321,0,0,1-1.754.174,1.826,1.826,0,0,1-.548-2.393A1.634,1.634,0,0,1,1923.94,1630.732Z" transform="translate(-326.845 -210.664)" fill="#303c49"/>
    <path id="Path_149" data-name="Path 149" d="M1975.768,1630.872c-1.153-.047-2.126-.023-2.119,1.3.006,1.309.939,1.393,1.973,1.31a1.31,1.31,0,0,1-1.809.125,1.915,1.915,0,0,1-.356-2.55A1.677,1.677,0,0,1,1975.768,1630.872Z" transform="translate(-371.559 -210.7)" fill="#303c49"/>
    <path id="Path_150" data-name="Path 150" d="M1945.961,1630.3c1,.121.9,1.121,1.443,1.477.6-.31.415-1.384,1.43-1.45-.274.477-.467.887-.728,1.249a2.509,2.509,0,0,0-.5,1.77c.01.107-.135.228-.208.343-.081-.086-.242-.186-.23-.256C1947.379,1632.2,1946.438,1631.414,1945.961,1630.3Z" transform="translate(-348.081 -210.533)" fill="#303c49"/>
    <path id="Path_151" data-name="Path 151" d="M2001.189,1633.37l1.517.074c-.2.427-.727.5-1.946.306,0-1.058,0-2.124.015-3.188,0-.035.224-.066.414-.117Z" transform="translate(-395.441 -210.655)" fill="#303c49"/>
    <path id="Path_152" data-name="Path 152" d="M1739.369,1632.292c0-.451-.012-.9.01-1.351,0-.094.135-.182.207-.273.082.085.234.168.235.255q.025,1.419,0,2.838c0,.082-.16.161-.246.242-.068-.1-.19-.191-.194-.29C1739.358,1633.239,1739.369,1632.765,1739.369,1632.292Z" transform="translate(-169.53 -210.846)" fill="#303c49"/>
  </g>
</svg>
