<svg xmlns="http://www.w3.org/2000/svg" width="46.13" height="46.172" viewBox="0 0 46.13 46.172">
  <g id="Instagram" transform="translate(0)">
    <path d="M-2906.1-2089.469c-2.414,0-4.829.034-7.242-.011a27.515,27.515,0,0,1-6-.571,11.9,11.9,0,0,1-7.863-5.75,13.464,13.464,0,0,1-1.654-5.273,82.89,82.89,0,0,1-.3-9.064c-.013-3.07-.009-6.141.038-9.21a31.284,31.284,0,0,1,.456-5.811,11.928,11.928,0,0,1,6.324-8.679,14.17,14.17,0,0,1,5.4-1.484c3.152-.274,6.312-.221,9.471-.232,2.735-.01,5.473-.01,8.209.04a30.836,30.836,0,0,1,6.135.518,11.991,11.991,0,0,1,7.842,5.314,13.158,13.158,0,0,1,1.946,5.725,90.155,90.155,0,0,1,.305,9.9c.009,2.892.006,5.785-.047,8.676a27.385,27.385,0,0,1-.555,6.029,11.847,11.847,0,0,1-8.908,9.222,18.906,18.906,0,0,1-4.618.595c-2.979.07-5.961.1-8.94.151Zm-18.869-23.023h-.023c0,1.3-.008,2.6,0,3.905s.007,2.625.073,3.936a32.227,32.227,0,0,0,.348,3.979,7.787,7.787,0,0,0,6.533,6.648,27.527,27.527,0,0,0,5.21.4c2.926.043,5.852.041,8.777.036a80.884,80.884,0,0,0,8.964-.279,9.08,9.08,0,0,0,3.893-1.284,7.97,7.97,0,0,0,3.6-5.532,27.8,27.8,0,0,0,.368-5.112c.026-4.672.006-9.343-.021-14.015a26.848,26.848,0,0,0-.35-4.512,7.93,7.93,0,0,0-6.367-6.6,28.25,28.25,0,0,0-5.544-.436c-3.247-.046-6.5-.033-9.745-.032a68.423,68.423,0,0,0-7.861.281,9,9,0,0,0-4.06,1.4,8,8,0,0,0-3.411,5.4,29.778,29.778,0,0,0-.371,5.116C-2925-2116.964-2924.967-2114.728-2924.967-2112.492Z" transform="translate(2929.156 2135.558)"/>
    <path d="M-2749.3-1943.85a11.832,11.832,0,0,1-11.834-11.9,11.832,11.832,0,0,1,11.99-11.777,11.878,11.878,0,0,1,11.7,12.083A11.883,11.883,0,0,1-2749.3-1943.85Zm-.006-4.159a7.658,7.658,0,0,0,7.691-7.786,7.677,7.677,0,0,0-7.706-7.575,7.667,7.667,0,0,0-7.654,7.72A7.662,7.662,0,0,0-2749.309-1948.009Z" transform="translate(2772.362 1978.755)" />
    <path d="M-2438.231-2010.56a2.765,2.765,0,0,1-2.791-2.723,2.779,2.779,0,0,1,2.741-2.818,2.788,2.788,0,0,1,2.793,2.732A2.772,2.772,0,0,1-2438.231-2010.56Z" transform="translate(2473.634 2024.081)"/>
  </g>
</svg>
