<svg xmlns="http://www.w3.org/2000/svg" width="132.039" height="73.614" viewBox="0 0 132.039 73.614">
  <g id="Group_24" data-name="Group 24" transform="translate(-1543.21 -1386.705)">
    <path id="Path_130" data-name="Path 130" d="M1603.607,1508.408a3.769,3.769,0,0,1,.389-1.1,143.007,143.007,0,0,0,12.945-19.431c.976-1.8,1.778-3.693,2.694-5.525.332-.665.2-1.034-.471-1.368-2.839-1.425-5.664-2.881-8.484-4.343q-1.638-.848-3.237-1.772a5.47,5.47,0,0,1-1.527-8.3,61.314,61.314,0,0,1,21.06-16.671c1.557-.781,3.147-1.5,4.744-2.2,2.229-.971,3.961-.361,5.008,1.85a27.033,27.033,0,0,1,1.318,3.656,69.924,69.924,0,0,0,6.352,14.519c2.543,4.4,5.35,8.655,8.02,12.986a2.574,2.574,0,0,1,.157.909c-.295-.088-.67-.09-.872-.277-5.494-5.094-10.918-10.257-15.515-16.207a8.757,8.757,0,0,1-1.05-1.513c-.417-.878-1.065-.93-1.863-.726q-7.052,1.81-14.1,3.615c-.764.2-.618.572-.219,1.02,2.363,2.656,4.741,5.3,7.076,7.98,1.28,1.469,2.487,3,3.723,4.509.8.969.845,1.437.009,2.426-1.191,1.409-2.413,2.8-3.712,4.108q-10.117,10.2-20.284,20.343c-.507.508-1.026,1-1.54,1.506Z" transform="translate(-47.965 -48.089)" fill="#fff"/>
    <path id="Path_131" data-name="Path 131" d="M1654.117,1460.012c1.143-1.159,2.15-2.089,3.041-3.12a1.273,1.273,0,0,1,1.6-.35,93.055,93.055,0,0,0,17.8,3.465,121.4,121.4,0,0,0,21.647.178,124.82,124.82,0,0,0,24.841-4.236,78.2,78.2,0,0,0,16.443-6.537c4.837-2.665,9.25-5.861,12.513-10.4,3.454-4.8,4.922-10.073,3.07-15.874-1.439-4.508-4.562-7.81-8.33-10.513-6.291-4.514-13.473-6.877-20.958-8.446-9.453-1.981-19.02-2.2-28.622-1.714-2.216.111-4.427.328-6.674.5l-.492-4.57c2.584-.33,5.18-.739,7.79-.98a132.553,132.553,0,0,1,23.5.022,85.865,85.865,0,0,1,23.707,5.016,35.1,35.1,0,0,1,12.77,7.806c5.238,5.316,6.762,11.61,4.653,18.778a32.343,32.343,0,0,1-8.812,13.98c-8.158,8.011-18.09,12.975-28.789,16.62a105.724,105.724,0,0,1-21.166,4.8,116.152,116.152,0,0,1-22.251.574,117.9,117.9,0,0,1-20.07-2.978C1658.939,1461.446,1656.594,1460.711,1654.117,1460.012Z" transform="translate(-88.077 -8.097)" fill="#fff"/>
    <path id="Path_132" data-name="Path 132" d="M1588.574,1418.86v3.9c-.814.213-1.723.459-2.637.69a81.209,81.209,0,0,0-24.751,10.356,38.1,38.1,0,0,0-11.873,11.579c-4.432,7.077-3.2,13.168,2.736,18.833a38.641,38.641,0,0,0,11.221,7.07c.307.137.609.285.984.461-.761,1.215-1.455,2.386-2.227,3.5a.969.969,0,0,1-.9.233c-5.45-2.413-10.582-5.289-14.4-10.037a15.353,15.353,0,0,1-3.49-8.611,15.578,15.578,0,0,1,1.949-7.771,41.263,41.263,0,0,1,11.37-13.97c8.68-7.187,18.633-11.98,29.32-15.364C1586.717,1419.462,1587.557,1419.188,1588.574,1418.86Z" transform="translate(0 -25.536)" fill="#fff"/>
    <path id="Path_133" data-name="Path 133" d="M1779.579,1393.481c-.216,3.806-1.083,6.612-3.379,8.845a4.235,4.235,0,0,1-6.627-.326c-2.959-3.587-3.03-9.842-.15-13.256a5.387,5.387,0,0,1,9.2,1.278A20.891,20.891,0,0,1,1779.579,1393.481Z" transform="translate(-177.969 0)" fill="#fff"/>
    <path id="Path_134" data-name="Path 134" d="M1877.958,1552.8c2.625,0,5.183-.081,7.731.031a2.665,2.665,0,0,1,2.611,2.552c.1,1.49-.476,2.231-2.145,2.765-.252.081-.5.186-1.054.4a11.147,11.147,0,0,0,1.072.413c1.64.407,2.415,1.192,2.491,2.554a2.879,2.879,0,0,1-2.268,3,6.3,6.3,0,0,1-1.8.358c-2.185.042-4.372.017-6.641.017Zm3.327,10.142c.993,0,1.875.069,2.74-.019.916-.093,1.055-.848,1.059-1.6,0-.713-.123-1.455-.98-1.548a26.261,26.261,0,0,0-2.819-.023Zm.028-5.332c1.121-.123,2.377.466,3.156-.622a2,2,0,0,0-.02-1.873c-.8-1.053-2.032-.5-3.136-.6Z" transform="translate(-265.841 -131.886)" fill="#fff"/>
    <path id="Path_135" data-name="Path 135" d="M1829.466,1493.939v-12c2.629,0,5.246-.064,7.854.046a3.128,3.128,0,0,1,1.84.99,2.538,2.538,0,0,1-.976,4.121,4.329,4.329,0,0,0-1.327.712c.364.1.729.208,1.093.315a2.542,2.542,0,0,1,2.126,2.2,2.661,2.661,0,0,1-1.375,2.943,4.827,4.827,0,0,1-1.918.643C1834.367,1493.985,1831.947,1493.939,1829.466,1493.939Zm3.31-1.934a3.7,3.7,0,0,0,.531.086c.58.005,1.162.021,1.739-.017,1.092-.072,1.552-.563,1.561-1.606.009-1.072-.417-1.581-1.5-1.657-.769-.055-1.544-.011-2.336-.011Zm-.005-5.276c1.151-.235,2.446.512,3.19-.675a2.023,2.023,0,0,0-.082-1.9c-.809-.916-2.006-.446-3.108-.486Z" transform="translate(-227.331 -75.616)" fill="#fff"/>
    <path id="Path_136" data-name="Path 136" d="M1959.314,1493.326v-12.19a7.048,7.048,0,0,1,.758-.081c1.677-.007,3.354-.017,5.031,0,4.642.047,6.455,2.673,5.97,7.095-.371,3.373-2.505,5.138-5.9,5.172C1963.265,1493.342,1961.351,1493.326,1959.314,1493.326Zm3.278-2.172c.671,0,1.212.013,1.752,0,2.154-.06,3.019-.762,3.246-2.88a10.745,10.745,0,0,0-.16-3.048,2.278,2.278,0,0,0-2.009-1.932,10.388,10.388,0,0,0-2.14-.116c-.241.014-.655.392-.659.61C1962.574,1486.174,1962.592,1488.564,1962.592,1491.154Z" transform="translate(-330.451 -74.921)" fill="#fff"/>
    <path id="Path_137" data-name="Path 137" d="M1900.254,1485.734c.007,4.049-2.334,6.473-6.283,6.507s-6.432-2.459-6.433-6.493c0-4.015,2.49-6.55,6.42-6.534C1897.86,1479.231,1900.248,1481.7,1900.254,1485.734Zm-9.159.008c.027.545.031,1.127.088,1.7a2.618,2.618,0,0,0,2.572,2.553,2.438,2.438,0,0,0,2.769-2.253,15.543,15.543,0,0,0,.03-3.854,2.406,2.406,0,0,0-2.84-2.391c-1.563.119-2.421,1.049-2.547,2.776C1891.132,1484.752,1891.12,1485.23,1891.1,1485.742Z" transform="translate(-273.449 -73.467)" fill="#fff"/>
    <path id="Path_138" data-name="Path 138" d="M1969.32,1551.76h3.215v5.938a30.474,30.474,0,0,0,2.948-3.6,4.552,4.552,0,0,1,5.184-2.392,7.158,7.158,0,0,0,.889,0l-5.023,5.808,5.4,6.456c-1.507,0-2.794.04-4.075-.031-.289-.016-.609-.377-.827-.648-1.431-1.781-2.837-3.581-4.412-5.578v6.176h-3.3Z" transform="translate(-338.397 -130.955)" fill="#fff"/>
    <path id="Path_139" data-name="Path 139" d="M2034,1564.561v-12.146h9.2v2.116h-5.822v2.741h4.071v2.189h-4.083v2.884h6.044v2.216Z" transform="translate(-389.762 -131.6)" fill="#fff"/>
    <path id="Path_140" data-name="Path 140" d="M2028.9,1480.871c-.8,1.3-1.515,2.446-2.231,3.593a14.613,14.613,0,0,1-.948,1.461,8.19,8.19,0,0,0-1.822,6.479,1.609,1.609,0,0,1-.025.408,1.483,1.483,0,0,1-.1.261h-3.3c0-1.048.07-2.07-.025-3.077a5.034,5.034,0,0,0-.576-1.992c-1.294-2.249-2.674-4.449-4.017-6.67a3.109,3.109,0,0,1-.171-.461c1.208,0,2.331-.041,3.447.028a1.2,1.2,0,0,1,.781.608c.8,1.532,1.546,3.093,2.41,4.848.738-1.522,1.448-2.831,2.009-4.2.382-.931.821-1.474,1.938-1.308A19.168,19.168,0,0,0,2028.9,1480.871Z" transform="translate(-375.221 -74.741)" fill="#fff"/>
    <path id="Path_141" data-name="Path 141" d="M1943.6,1564.632h-3.2v-12.154h3.2Z" transform="translate(-315.433 -131.65)" fill="#fff"/>
    <path id="Path_142" data-name="Path 142" d="M1787.668,1635.509v-5.016c1.251.1,2.579-.4,3.633.715a3.233,3.233,0,0,1,.258,3.213C1791.043,1635.439,1790.012,1635.74,1787.668,1635.509Zm.78-.248c.923-.376,2.005-.488,2.247-1a3.56,3.56,0,0,0-.026-2.581c-.354-.886-1.375-.588-2.221-.58Z" transform="translate(-194.137 -193.584)" fill="#fff"/>
    <path id="Path_143" data-name="Path 143" d="M1755.938,1630.743c0,1.081.019,2.161-.017,3.241-.006.2-.234.383-.359.574-.093-.19-.263-.378-.266-.569-.024-1.265-.015-2.531-.012-3.8,0-.2.026-.4.065-.987.564.41,1.046.6,1.282.961a32.1,32.1,0,0,0,2.139,3.161v-3.855c.658.332.854,2.929.448,5.336-.467-.329-.931-.5-1.149-.838-.689-1.056-1.287-2.171-1.921-3.264Z" transform="translate(-168.417 -192.583)" fill="#fff"/>
    <path id="Path_144" data-name="Path 144" d="M1850.955,1632.615c0,1.69-.89,2.648-2.426,2.626-1.468-.021-2.317-.988-2.315-2.635s.949-2.691,2.428-2.654A2.345,2.345,0,0,1,1850.955,1632.615Zm-.781.022c0-1.325-.565-2.064-1.588-2.063s-1.608.749-1.6,2.058c.008,1.277.542,1.967,1.544,2C1849.588,1634.66,1850.17,1633.955,1850.175,1632.637Z" transform="translate(-240.632 -193.175)" fill="#fff"/>
    <path id="Path_145" data-name="Path 145" d="M1820.205,1632.648c-.013,1.681-.909,2.627-2.457,2.595-1.448-.03-2.311-1.032-2.3-2.663a2.375,2.375,0,0,1,2.365-2.626C1819.313,1629.941,1820.219,1630.964,1820.205,1632.648Zm-3.973-.011c.008,1.258.568,1.974,1.558,1.994,1.045.022,1.666-.717,1.678-1.994.012-1.257-.619-2.053-1.628-2.057S1816.224,1631.347,1816.232,1632.636Z" transform="translate(-216.203 -193.176)" fill="#fff"/>
    <path id="Path_146" data-name="Path 146" d="M1880.758,1633.459l1.289,1.974c-1.143.272-1.258-.709-1.673-1.224-.537-.668-.492-.7-1.285-.646-.431.562.31,1.525-.73,2.082v-5.063c1.409-.412,2.742-.193,3.169.534S1881.727,1632.6,1880.758,1633.459Zm-1.733-.365a11.125,11.125,0,0,0,1.793-.721,1.009,1.009,0,0,0,.015-.9,11.384,11.384,0,0,0-1.808-.663Z" transform="translate(-266.16 -193.512)" fill="#fff"/>
    <path id="Path_147" data-name="Path 147" d="M2025.059,1633.716v1.613h2.409c-.359.693-1.184.8-3.138.516v-4.918h2.993l.055.361-2.316.244v1.4l1.808.184.022.412Z" transform="translate(-382.083 -193.949)" fill="#fff"/>
    <path id="Path_148" data-name="Path 148" d="M1925.258,1630.874c-1.726.051-3.328.268-3.065,2.5.209,1.774,1.657,1.679,3.028,1.632a2,2,0,0,1-2.659.264,2.769,2.769,0,0,1-.832-3.629A2.478,2.478,0,0,1,1925.258,1630.874Z" transform="translate(-300.333 -193.576)" fill="#fff"/>
    <path id="Path_149" data-name="Path 149" d="M1977.133,1631.066c-1.748-.072-3.224-.035-3.214,1.975.01,1.985,1.424,2.112,2.992,1.986a1.987,1.987,0,0,1-2.743.19,2.9,2.9,0,0,1-.541-3.867A2.543,2.543,0,0,1,1977.133,1631.066Z" transform="translate(-341.42 -193.609)" fill="#fff"/>
    <path id="Path_150" data-name="Path 150" d="M1945.961,1630.305c1.519.183,1.371,1.7,2.188,2.239.912-.471.629-2.1,2.169-2.2-.416.724-.709,1.345-1.1,1.893a3.805,3.805,0,0,0-.759,2.683c.016.162-.2.346-.315.52-.122-.13-.367-.281-.349-.388C1948.112,1633.184,1946.684,1631.987,1945.961,1630.305Z" transform="translate(-319.846 -193.456)" fill="#fff"/>
    <path id="Path_151" data-name="Path 151" d="M2001.411,1634.881l2.3.112c-.3.648-1.1.756-2.952.464,0-1.6,0-3.22.023-4.835,0-.052.34-.1.628-.177Z" transform="translate(-363.365 -193.567)" fill="#fff"/>
    <path id="Path_152" data-name="Path 152" d="M1739.371,1633.131c0-.683-.018-1.368.016-2.049.006-.143.2-.277.314-.415.125.129.355.255.357.386q.038,2.152,0,4.3c0,.125-.243.245-.373.366-.1-.146-.288-.29-.294-.44C1739.354,1634.567,1739.371,1633.849,1739.371,1633.131Z" transform="translate(-155.778 -193.744)" fill="#fff"/>
  </g>
</svg>
