<svg xmlns="http://www.w3.org/2000/svg" width="54.825" height="62.465" viewBox="0 0 54.825 62.465">
  <g id="Group_12" data-name="Group 12" transform="translate(-289.647 -248.164)">
    <circle id="Ellipse_3" data-name="Ellipse 3" cx="5.076" cy="5.076" r="5.076" transform="translate(334.32 248.164)" fill="#fff"/>
    <path id="Path_11" data-name="Path 11" d="M316.207,334.763a26.56,26.56,0,1,0,26.56,26.56A26.56,26.56,0,0,0,316.207,334.763Zm11.928,15.656a6.24,6.24,0,0,1-.968,3.651c-1.431,1.981-4.36,2.685-6.571,3.364-2.455.754-4.99,1.39-7.345,2.372q-.37.154-.735.319a3.622,3.622,0,0,0-2.417,3.906.119.119,0,0,0,.019.074c1.966-1.932,4.868-2.574,7.451-3.344,2.744-.818,3.334-1.07,6.078-1.888a1.981,1.981,0,0,1,.988-.1c.541.123.408,2.254.314,2.961-.231,1.723-1.6,2.109-3.21,2.538-4.026,1.071-7.454,1.351-9.981,3.461a2.587,2.587,0,0,0-.861,2.113,13.624,13.624,0,0,1,2.2-.927,9.82,9.82,0,0,1,2.149-.346,2.413,2.413,0,0,1,2.08,4.123c-.814,1.085-2.391,1.219-3.706.984a5.247,5.247,0,0,1-2.765-1.436,6,6,0,0,1-1.628-6.148,2.486,2.486,0,0,0-.1-.787c-.016-.062-.824-3.1-.824-3.1-1.008-3.918,1.427-6.475,4.843-7.916,2.119-.894,4.559-1.651,6.458-2.236,4.531-1.4,3.2-1.037,7.606-2.376C328.114,349.4,328.172,349.54,328.135,350.419Z" transform="translate(0 -77.254)" fill="#fff"/>
  </g>
</svg>
