<svg xmlns="http://www.w3.org/2000/svg" width="50.967" height="28.415" viewBox="0 0 50.967 28.415">
  <g id="Group_1072" data-name="Group 1072" transform="translate(-1543.21 -1386.705)">
    <path id="Path_130" data-name="Path 130" d="M1603.607,1470.862a1.46,1.46,0,0,1,.15-.423,55.2,55.2,0,0,0,5-7.5c.377-.695.686-1.425,1.04-2.133.128-.257.075-.4-.182-.528-1.1-.55-2.186-1.112-3.275-1.676q-.632-.328-1.249-.684a2.111,2.111,0,0,1-.59-3.2,23.667,23.667,0,0,1,8.129-6.435c.6-.3,1.215-.579,1.831-.848a1.326,1.326,0,0,1,1.933.714,10.416,10.416,0,0,1,.509,1.411,26.988,26.988,0,0,0,2.452,5.6c.982,1.7,2.065,3.341,3.1,5.013a.986.986,0,0,1,.061.351c-.114-.034-.259-.035-.337-.107a52.331,52.331,0,0,1-5.989-6.256,3.386,3.386,0,0,1-.405-.584c-.161-.339-.411-.359-.719-.28l-5.444,1.4c-.295.075-.239.221-.085.394.912,1.025,1.83,2.045,2.731,3.08.494.567.96,1.159,1.437,1.74.307.374.326.555,0,.937-.46.544-.931,1.08-1.433,1.586q-3.905,3.935-7.83,7.852c-.2.2-.4.388-.594.581Z" transform="translate(-55.598 -55.742)" fill="#fff"/>
    <path id="Path_131" data-name="Path 131" d="M1654.117,1421.262c.441-.448.83-.806,1.174-1.2a.491.491,0,0,1,.618-.135,35.9,35.9,0,0,0,6.869,1.338,46.837,46.837,0,0,0,8.356.069,48.188,48.188,0,0,0,9.589-1.635,30.182,30.182,0,0,0,6.347-2.524,14.093,14.093,0,0,0,4.83-4.015,6.622,6.622,0,0,0,1.185-6.127,8.071,8.071,0,0,0-3.215-4.058,20.9,20.9,0,0,0-8.09-3.26,43.046,43.046,0,0,0-11.048-.662c-.855.043-1.709.127-2.576.193l-.19-1.764c1-.127,2-.285,3.007-.378a51.161,51.161,0,0,1,9.071.008,33.145,33.145,0,0,1,9.151,1.936,13.549,13.549,0,0,1,4.929,3.013,6.9,6.9,0,0,1,1.8,7.248,12.482,12.482,0,0,1-3.4,5.4,28.517,28.517,0,0,1-11.113,6.415,40.819,40.819,0,0,1-8.17,1.853,44.841,44.841,0,0,1-8.589.222,45.509,45.509,0,0,1-7.747-1.15C1655.978,1421.816,1655.073,1421.532,1654.117,1421.262Z" transform="translate(-102.095 -9.386)" fill="#fff"/>
    <path id="Path_132" data-name="Path 132" d="M1560.72,1418.86v1.5c-.314.082-.665.177-1.018.266a31.348,31.348,0,0,0-9.554,4,14.706,14.706,0,0,0-4.583,4.47c-1.711,2.732-1.237,5.083,1.056,7.27a14.916,14.916,0,0,0,4.332,2.729c.119.053.235.11.38.178-.294.469-.562.921-.86,1.352a.374.374,0,0,1-.346.09,14.137,14.137,0,0,1-5.56-3.875,5.926,5.926,0,0,1-1.347-3.324,6.01,6.01,0,0,1,.752-3,15.926,15.926,0,0,1,4.389-5.392,33.1,33.1,0,0,1,11.317-5.931C1560,1419.092,1560.328,1418.986,1560.72,1418.86Z" transform="translate(0 -29.6)" fill="#fff"/>
    <path id="Path_133" data-name="Path 133" d="M1772.045,1389.32a4.772,4.772,0,0,1-1.3,3.414,1.635,1.635,0,0,1-2.558-.126,4.3,4.3,0,0,1-.058-5.117,2.08,2.08,0,0,1,3.551.493A8.059,8.059,0,0,1,1772.045,1389.32Z" transform="translate(-206.292)" fill="#fff"/>
    <path id="Path_134" data-name="Path 134" d="M1877.958,1552.787c1.013,0,2-.031,2.984.012a1.028,1.028,0,0,1,1.008.985c.039.575-.184.861-.828,1.067-.1.031-.191.072-.407.153a4.232,4.232,0,0,0,.414.16c.633.157.932.46.962.986a1.111,1.111,0,0,1-.875,1.159,2.428,2.428,0,0,1-.694.138c-.844.016-1.688.006-2.563.006Zm1.284,3.915c.383,0,.724.026,1.058-.007.353-.036.407-.327.408-.617s-.047-.562-.378-.6a10.169,10.169,0,0,0-1.088-.009Zm.011-2.058c.433-.047.918.18,1.218-.24a.774.774,0,0,0-.008-.723c-.307-.407-.785-.192-1.21-.232Z" transform="translate(-308.15 -152.875)" fill="#fff"/>
    <path id="Path_135" data-name="Path 135" d="M1829.466,1486.56v-4.632c1.015,0,2.025-.025,3.032.018a1.209,1.209,0,0,1,.71.382.98.98,0,0,1-.377,1.591,1.67,1.67,0,0,0-.512.275l.422.122a.981.981,0,0,1,.821.849,1.027,1.027,0,0,1-.531,1.136,1.868,1.868,0,0,1-.74.248C1831.358,1486.578,1830.424,1486.56,1829.466,1486.56Zm1.278-.747a1.417,1.417,0,0,0,.205.033c.224,0,.448.008.671-.006.421-.028.6-.217.6-.62s-.161-.61-.577-.64c-.3-.021-.6,0-.9,0Zm0-2.036c.445-.091.944.2,1.231-.261a.78.78,0,0,0-.031-.732c-.312-.354-.774-.172-1.2-.188Z" transform="translate(-263.511 -87.651)" fill="#fff"/>
    <path id="Path_136" data-name="Path 136" d="M1959.314,1485.786v-4.705a2.734,2.734,0,0,1,.293-.031c.647,0,1.295-.007,1.942,0,1.792.018,2.492,1.032,2.3,2.739a2.084,2.084,0,0,1-2.276,2C1960.839,1485.792,1960.1,1485.786,1959.314,1485.786Zm1.265-.839c.259,0,.468.005.676,0,.832-.023,1.166-.294,1.253-1.112a4.142,4.142,0,0,0-.062-1.177.879.879,0,0,0-.775-.746,4.006,4.006,0,0,0-.826-.045c-.093.005-.253.151-.254.235C1960.572,1483.025,1960.579,1483.948,1960.579,1484.947Z" transform="translate(-383.042 -86.845)" fill="#fff"/>
    <path id="Path_137" data-name="Path 137" d="M1892.447,1481.731a2.276,2.276,0,0,1-2.425,2.512,2.516,2.516,0,1,1,2.425-2.512Zm-3.535,0c.01.21.012.435.034.657a1.01,1.01,0,0,0,.993.985.941.941,0,0,0,1.069-.87,6,6,0,0,0,.011-1.488.928.928,0,0,0-1.1-.923,1,1,0,0,0-.983,1.072C1888.925,1481.353,1888.921,1481.537,1888.911,1481.735Z" transform="translate(-316.969 -85.16)" fill="#fff"/>
    <path id="Path_138" data-name="Path 138" d="M1969.32,1551.664h1.241v2.292a11.741,11.741,0,0,0,1.138-1.39,1.757,1.757,0,0,1,2-.923,2.754,2.754,0,0,0,.343,0l-1.939,2.242,2.085,2.492c-.582,0-1.079.016-1.573-.012-.112-.006-.235-.145-.319-.25-.552-.687-1.1-1.383-1.7-2.153v2.384h-1.274Z" transform="translate(-392.253 -151.796)" fill="#fff"/>
    <path id="Path_139" data-name="Path 139" d="M2034,1557.1v-4.688h3.552v.817H2035.3v1.058h1.571v.845H2035.3v1.113h2.333v.855Z" transform="translate(-451.792 -152.543)" fill="#fff"/>
    <path id="Path_140" data-name="Path 140" d="M2020.789,1480.839c-.31.5-.585.944-.861,1.387a5.66,5.66,0,0,1-.366.564,3.16,3.16,0,0,0-.7,2.5.612.612,0,0,1-.01.157.578.578,0,0,1-.039.1h-1.272c0-.4.027-.8-.01-1.188a1.941,1.941,0,0,0-.222-.769c-.5-.868-1.032-1.717-1.551-2.575a1.252,1.252,0,0,1-.066-.178c.467,0,.9-.016,1.331.011a.462.462,0,0,1,.3.235c.309.591.6,1.194.93,1.871.285-.587.559-1.093.776-1.621.147-.359.317-.569.748-.505A7.386,7.386,0,0,0,2020.789,1480.839Z" transform="translate(-434.937 -86.636)" fill="#fff"/>
    <path id="Path_141" data-name="Path 141" d="M1941.639,1557.169H1940.4v-4.691h1.235Z" transform="translate(-365.634 -152.601)" fill="#fff"/>
    <path id="Path_142" data-name="Path 142" d="M1787.668,1632.412v-1.936c.483.04,1-.156,1.4.276a1.249,1.249,0,0,1,.1,1.24C1788.97,1632.385,1788.573,1632.5,1787.668,1632.412Zm.3-.1c.356-.145.774-.188.867-.385a1.374,1.374,0,0,0-.01-1c-.137-.342-.531-.227-.857-.224Z" transform="translate(-225.034 -224.392)" fill="#fff"/>
    <path id="Path_143" data-name="Path 143" d="M1755.535,1629.8c0,.417.007.834-.007,1.251,0,.075-.09.148-.139.222-.036-.073-.1-.146-.1-.22-.009-.488-.006-.977,0-1.466,0-.078.01-.155.025-.381.218.158.4.234.495.371a12.365,12.365,0,0,0,.826,1.22v-1.488c.254.128.33,1.131.173,2.059-.18-.127-.359-.194-.443-.323-.266-.408-.5-.838-.741-1.26Z" transform="translate(-195.22 -223.232)" fill="#fff"/>
    <path id="Path_144" data-name="Path 144" d="M1848.044,1630.98c0,.653-.343,1.022-.936,1.014-.567-.008-.894-.381-.894-1.017a.921.921,0,1,1,1.83,0Zm-.3.009c0-.511-.218-.8-.613-.8s-.621.289-.618.794.209.759.6.771C1847.516,1631.769,1847.741,1631.5,1847.743,1630.988Z" transform="translate(-278.928 -223.919)" fill="#fff"/>
    <path id="Path_145" data-name="Path 145" d="M1817.288,1630.993c-.005.649-.351,1.014-.948,1a.893.893,0,0,1-.886-1.028.917.917,0,0,1,.913-1.014C1816.943,1629.948,1817.293,1630.343,1817.288,1630.993Zm-1.534,0c0,.485.219.762.6.77.4.008.643-.276.648-.77s-.239-.792-.629-.794S1815.751,1630.491,1815.754,1630.988Z" transform="translate(-250.612 -223.92)" fill="#fff"/>
    <path id="Path_146" data-name="Path 146" d="M1879.285,1631.566l.5.762c-.441.105-.486-.274-.646-.473-.207-.258-.19-.272-.5-.25-.166.217.12.589-.282.8v-1.955c.544-.159,1.058-.074,1.223.206S1879.659,1631.233,1879.285,1631.566Zm-.669-.141a4.284,4.284,0,0,0,.692-.278.389.389,0,0,0,.006-.347,4.383,4.383,0,0,0-.7-.256Z" transform="translate(-308.519 -224.31)" fill="#fff"/>
    <path id="Path_147" data-name="Path 147" d="M2024.611,1632v.623h.93c-.139.268-.457.308-1.211.2v-1.9h1.155l.021.139-.894.094v.54l.7.071.008.159Z" transform="translate(-442.892 -224.816)" fill="#fff"/>
    <path id="Path_148" data-name="Path 148" d="M1922.883,1630.618c-.666.02-1.285.1-1.183.964.081.685.64.648,1.169.63a.773.773,0,0,1-1.026.1,1.069,1.069,0,0,1-.321-1.4A.957.957,0,0,1,1922.883,1630.618Z" transform="translate(-348.13 -224.384)" fill="#fff"/>
    <path id="Path_149" data-name="Path 149" d="M1974.673,1630.717c-.675-.028-1.245-.014-1.241.762s.55.815,1.155.767a.767.767,0,0,1-1.059.073,1.121,1.121,0,0,1-.209-1.493A.982.982,0,0,1,1974.673,1630.717Z" transform="translate(-395.757 -224.422)" fill="#fff"/>
    <path id="Path_150" data-name="Path 150" d="M1945.961,1630.305c.586.071.529.656.845.864.352-.182.243-.81.837-.849-.161.279-.274.519-.426.731a1.468,1.468,0,0,0-.293,1.036c.006.063-.079.134-.122.2-.047-.05-.142-.109-.135-.15C1946.791,1631.416,1946.24,1630.954,1945.961,1630.305Z" transform="translate(-370.75 -224.245)" fill="#fff"/>
    <path id="Path_151" data-name="Path 151" d="M2001.011,1632.157l.888.043c-.116.25-.425.292-1.139.179,0-.619,0-1.243.009-1.866,0-.02.131-.038.242-.068Z" transform="translate(-421.194 -224.374)" fill="#fff"/>
    <path id="Path_152" data-name="Path 152" d="M1739.368,1631.618c0-.264-.007-.528.006-.791,0-.055.079-.107.121-.16.048.05.137.1.138.149q.015.831,0,1.661c0,.048-.094.094-.144.141-.04-.057-.111-.112-.114-.17C1739.362,1632.173,1739.368,1631.9,1739.368,1631.618Z" transform="translate(-180.571 -224.578)" fill="#fff"/>
  </g>
</svg>
