<svg xmlns="http://www.w3.org/2000/svg" width="121.424" height="27.152" viewBox="0 0 121.424 27.152">
  <g id="Group_1036"  transform="translate(725.876 -761.273)">
    <path id="Path_1406"  d="M-706.469,788.425c-4.771-.263-9.389-.447-13.995-.8-2.905-.22-4.52-1.754-4.852-4.63a81.142,81.142,0,0,1-.559-8.769,63.456,63.456,0,0,1,.512-7.453c.347-3.1,1.939-4.75,5.063-4.933q8.016-.469,16.051-.568c3.149-.042,6.3.206,9.454.38a17.938,17.938,0,0,1,3.367.468A4.4,4.4,0,0,1-688,765.874a52.887,52.887,0,0,1,.028,17.617,4.564,4.564,0,0,1-4.366,4.1C-697.09,787.946-701.853,788.161-706.469,788.425Zm-3.9-19.466v11.595l10.039-5.8Z" transform="translate(0 0)"/>
    <path id="Path_1407"  d="M-273.912,774.56a13.709,13.709,0,0,1,3.092-1.5,2.685,2.685,0,0,1,3.437,2.273,29,29,0,0,1,0,12.323c-.7,3.069-3.914,3.79-6.112,1.524-.118-.122-.133-.346-.255-.687-.8,1.859-1.081,1.958-3.643,1.577V766.244h3.483Zm.039,7.366c0,1.463.011,2.925,0,4.388-.009.871.536,1.247,1.263,1.411a1.282,1.282,0,0,0,1.551-.906,2.629,2.629,0,0,0,.252-.949c.017-2.847.05-5.695-.022-8.54-.02-.783-.276-1.659-1.366-1.676a1.955,1.955,0,0,0-1.667,1.885c-.017.218,0,.438,0,.658Q-273.871,780.061-273.873,781.925Z" transform="translate(-349.522 -3.874)"/>
    <path id="Path_1408"  d="M-423.783,798.341h3.669v2.119q0,4.84,0,9.68a7.611,7.611,0,0,0,.049,1.207c.118.725.2,1.524,1.246,1.477a1.617,1.617,0,0,0,1.524-1.681c.014-3.813.007-7.627.007-11.44,0-.43,0-.86,0-1.357h3.677V815.2c-.757,0-1.514.036-2.267-.008-1.212-.071-.421-1.326-.892-1.666a13.207,13.207,0,0,1-2.691,1.767c-2.165.761-3.775-.291-4.222-2.532a3.428,3.428,0,0,1-.1-.652C-423.784,807.564-423.783,803.021-423.783,798.341Z" transform="translate(-235.436 -28.889)"/>
    <path id="Path_1409"  d="M-331.487,798.005c0,.711,0,1.287,0,1.864q0,4.952,0,9.9a9.039,9.039,0,0,0,.031,1.209c.1.76.128,1.623,1.262,1.558a1.578,1.578,0,0,0,1.5-1.7c.014-2.824.006-5.649.007-8.473,0-1.391,0-2.782,0-4.354,1.15,0,2.235-.026,3.316.028.157.008.423.395.424.607,0,5.354-.019,10.708-.042,16.061,0,.027-.047.054-.134.149h-2.709l-.351-1.614a12.844,12.844,0,0,1-2.571,1.75c-2.218.83-4-.29-4.327-2.622a24.382,24.382,0,0,1-.156-3.291c-.017-3.375.01-6.75-.015-10.124-.006-.69.164-1.012.918-.967C-333.43,798.047-332.521,798.005-331.487,798.005Z" transform="translate(-304.431 -28.614)"/>
    <path id="Path_1410"  d="M-470.65,805.6c-.194,1.742-.257,3.51-.613,5.218-.51,2.449-2.121,3.505-4.868,3.473-2.8-.033-4.308-1.059-4.8-3.554a25.574,25.574,0,0,1,.02-10.26c.552-2.626,2.147-3.7,5.067-3.672,2.644.029,4.069,1.169,4.656,3.753a10.562,10.562,0,0,1,.3,1.84c.048,1.06.013,2.123.013,3.185Zm-3.888.011-.2,0c0-1.537.041-3.075-.017-4.61-.03-.8-.325-1.595-1.307-1.611-.942-.016-1.269.776-1.282,1.512q-.086,4.668-.005,9.337c.012.752.369,1.518,1.294,1.5.9-.017,1.235-.744,1.293-1.519C-474.648,808.681-474.609,807.143-474.538,805.608Z" transform="translate(-190.501 -27.688)"/>
    <path id="Path_1411"  d="M-529.374,769.852l2.351,11.07.191.015c.4-1.905.8-3.812,1.215-5.715.342-1.575.667-3.156,1.083-4.713a1.183,1.183,0,0,1,.841-.68c.94-.089,1.894-.032,3-.032-.686,2.454-1.333,4.771-1.983,7.088-.732,2.611-1.516,5.208-2.175,7.837a12.61,12.61,0,0,0-.2,2.836c-.027,1.752-.008,3.5-.008,5.318H-528.8a25.947,25.947,0,0,1,.013-2.639c.405-3.9-.71-7.543-1.775-11.208-.878-3.02-1.685-6.061-2.547-9.177Z" transform="translate(-150.233 -6.628)"/>
    <path id="Path_1412"  d="M-214.7,808.3l3.008.159a3.991,3.991,0,0,1-3.215,5.089c-3.6.765-5.961-.665-6.321-4.316a41.982,41.982,0,0,1,.084-8.979c.421-3.565,4.3-5.239,7.509-3.522a3.417,3.417,0,0,1,1.846,2.72c.238,2.175.317,4.367.477,6.771H-216.1c-1.715,0-1.725,0-1.689,1.728a5.8,5.8,0,0,0,.17,1.957,2.151,2.151,0,0,0,1.2,1.182c.7.2,1.248-.31,1.419-1.053C-214.882,809.51-214.816,808.971-214.7,808.3Zm-3.107-6.738c.08,2.731-.454,2.414,2.114,2.431.037,0,.087.013.108-.006.211-.186.6-.382.6-.568a23.939,23.939,0,0,0-.268-3.7,1.459,1.459,0,0,0-1.094-.925,1.785,1.785,0,0,0-1.217.969A5.958,5.958,0,0,0-217.809,801.564Z" transform="translate(-393.138 -27.105)"/>
    <path id="Path_1413"  d="M-377.225,793.284V773.267h-3.711V770.3h11.1v2.924h-1.319c-2.393,0-2.393,0-2.394,2.444q0,8.19,0,16.38c0,.393,0,.785,0,1.235Z" transform="translate(-268.828 -7.036)"/>
  </g>
</svg>
